<?xml version="1.0" standalone="no"?>
<!DOCTYPE svg PUBLIC "-//W3C//DTD SVG 20010904//EN"
 "http://www.w3.org/TR/2001/REC-SVG-20010904/DTD/svg10.dtd">
<svg version="1.0" xmlns="http://www.w3.org/2000/svg"
 width="512.000000pt" height="512.000000pt" viewBox="0 0 512.000000 512.000000"
 preserveAspectRatio="xMidYMid meet">

<g transform="translate(0.000000,512.000000) scale(0.100000,-0.100000)"
fill="#fff" stroke="none">
<path d="M785 5111 c-82 -21 -162 -87 -206 -171 l-24 -45 0 -2330 0 -2330 24
-52 c29 -65 101 -134 166 -159 49 -18 99 -19 1820 -19 l1770 0 52 24 c65 29
134 101 159 166 19 49 19 107 19 2365 0 2258 0 2316 -19 2365 -25 65 -94 137
-159 166 l-52 24 -1760 2 c-968 0 -1773 -2 -1790 -6z m3538 -145 c39 -16 82
-61 96 -99 15 -40 15 -4574 0 -4614 -14 -38 -57 -83 -96 -99 -48 -21 -3478
-21 -3526 0 -39 16 -82 61 -96 99 -8 20 -11 722 -11 2308 0 2461 -3 2317 51
2369 55 52 -42 49 1817 50 1450 0 1738 -2 1765 -14z"/>
<path d="M972 4697 c-22 -23 -22 -25 -22 -488 l0 -466 23 -21 23 -22 1565 0
1566 0 21 23 c22 23 22 25 22 488 l0 466 -23 21 -23 22 -1565 0 -1566 0 -21
-23z m3058 -487 l0 -370 -1470 0 -1470 0 0 370 0 370 1470 0 1470 0 0 -370z"/>
<path d="M976 3419 l-26 -20 0 -365 0 -365 25 -24 24 -25 399 0 c389 0 400 1
426 21 l26 20 0 368 0 368 -23 21 c-23 22 -26 22 -424 22 -390 0 -401 -1 -427
-21z m734 -389 l0 -270 -310 0 -310 0 0 270 0 270 310 0 310 0 0 -270z"/>
<path d="M2136 3419 l-26 -20 0 -365 0 -365 25 -24 24 -25 401 0 401 0 24 25
25 24 0 361 0 361 -25 24 -24 25 -399 0 c-389 0 -400 -1 -426 -21z m734 -389
l0 -270 -310 0 -310 0 0 270 0 270 310 0 310 0 0 -270z"/>
<path d="M3292 3417 c-22 -23 -22 -27 -22 -389 l0 -367 26 -20 c26 -20 37 -21
426 -21 l399 0 24 25 25 24 0 361 0 361 -25 24 -24 25 -404 0 -404 0 -21 -23z
m738 -387 l0 -270 -310 0 -310 0 0 270 0 270 310 0 310 0 0 -270z"/>
<path d="M975 2305 l-25 -24 0 -361 0 -361 25 -24 24 -25 404 0 404 0 21 23
c22 23 22 27 22 389 l0 367 -26 20 c-26 20 -37 21 -426 21 l-399 0 -24 -25z
m735 -385 l0 -270 -310 0 -310 0 0 270 0 270 310 0 310 0 0 -270z"/>
<path d="M2135 2305 l-25 -24 0 -361 0 -361 25 -24 24 -25 401 0 401 0 24 25
25 24 0 361 0 361 -25 24 -24 25 -401 0 -401 0 -24 -25z m735 -385 l0 -270
-310 0 -310 0 0 270 0 270 310 0 310 0 0 -270z"/>
<path d="M3296 2309 l-26 -20 0 -923 0 -923 23 -21 c23 -22 26 -22 424 -22
390 0 401 1 427 21 l26 20 0 920 0 920 -25 24 -24 25 -399 0 c-389 0 -400 -1
-426 -21z m734 -944 l0 -825 -310 0 -310 0 0 825 0 825 310 0 310 0 0 -825z"/>
<path d="M975 1195 l-25 -24 0 -364 0 -364 23 -21 c23 -22 26 -22 428 -22
l406 0 21 23 c22 23 22 27 22 389 l0 367 -26 20 c-26 20 -37 21 -426 21 l-399
0 -24 -25z m735 -385 l0 -270 -310 0 -310 0 0 270 0 270 310 0 310 0 0 -270z"/>
<path d="M2135 1195 l-25 -24 0 -364 0 -364 23 -21 c23 -22 26 -22 428 -22
l406 0 21 23 c22 23 22 27 22 386 l0 362 -25 24 -24 25 -401 0 -401 0 -24 -25z
m735 -385 l0 -270 -310 0 -310 0 0 270 0 270 310 0 310 0 0 -270z"/>
</g>
</svg>
