<?xml version="1.0" standalone="no"?>
<!DOCTYPE svg PUBLIC "-//W3C//DTD SVG 20010904//EN"
 "http://www.w3.org/TR/2001/REC-SVG-20010904/DTD/svg10.dtd">
<svg version="1.0" xmlns="http://www.w3.org/2000/svg"
 width="128.000000pt" height="128.000000pt" viewBox="0 0 128.000000 128.000000"
 preserveAspectRatio="xMidYMid meet">

<g transform="translate(0.000000,128.000000) scale(0.100000,-0.100000)"
fill="#fff" stroke="none">
<path d="M585 1246 c-37 -16 -83 -68 -91 -102 -10 -39 2 -100 25 -132 64 -91
212 -77 261 23 24 50 25 86 4 132 -35 72 -131 110 -199 79z"/>
<path d="M424 881 c-43 -26 -63 -57 -128 -199 -53 -114 -63 -129 -134 -195
-143 -134 -151 -147 -128 -201 15 -36 55 -56 94 -47 12 3 71 51 131 106 89 82
115 113 144 170 l36 70 0 -107 1 -106 -138 -75 c-76 -42 -146 -84 -155 -95
-46 -51 -25 -139 40 -170 35 -17 37 -16 243 36 l207 54 197 -51 c108 -28 208
-51 222 -51 16 0 39 13 60 34 29 29 34 41 34 79 0 28 -7 53 -17 66 -10 11 -79
54 -153 95 -100 55 -137 80 -141 97 -4 13 -7 65 -7 114 l0 90 34 -72 c30 -61
53 -87 150 -177 105 -97 117 -106 153 -106 47 0 81 35 81 84 0 26 -16 46 -109
136 -107 103 -109 107 -166 230 -98 215 -91 210 -342 210 -157 0 -182 -2 -209
-19z"/>
</g>
</svg>
